<svg width="19" height="19" viewBox="0 0 19 19" fill="none" xmlns="http://www.w3.org/2000/svg">
<path d="M13.8202 4.72809L7.66067 1.04382C7.61339 1.01573 7.55306 1 7.48948 1H6.0466C5.92595 1 5.87051 1.10337 5.96182 1.1573L11.6714 4.57303H2.13043C2.05869 4.57303 2 4.61348 2 4.66292V5.33708C2 5.38652 2.05869 5.42697 2.13043 5.42697H11.6698L5.96019 8.8427C5.86888 8.89775 5.92432 9 6.04497 9H7.53676C7.56774 9 7.59871 8.99214 7.62154 8.97753L13.8202 5.27191C13.8767 5.23809 13.9219 5.19631 13.9529 5.1494C13.984 5.10249 14 5.05155 14 5C14 4.94845 13.984 4.89751 13.9529 4.8506C13.9219 4.80369 13.8767 4.76191 13.8202 4.72809Z" fill="#FFFCF7"/>
</svg>
