<svg width="9" height="9" viewBox="0 0 9 9" fill="none" xmlns="http://www.w3.org/2000/svg">
<path d="M8.59091 3.96H7.72159V1.44C7.72159 0.644625 6.98906 0 6.08523 0H2.91477C2.01094 0 1.27841 0.644625 1.27841 1.44V3.96H0.409091C0.182812 3.96 0 4.12088 0 4.32V8.64C0 8.83913 0.182812 9 0.409091 9H8.59091C8.81719 9 9 8.83913 9 8.64V4.32C9 4.12088 8.81719 3.96 8.59091 3.96ZM4.85795 6.62625V7.2225C4.85795 7.272 4.81193 7.3125 4.75568 7.3125H4.24432C4.18807 7.3125 4.14205 7.272 4.14205 7.2225V6.62625C4.03652 6.55958 3.95775 6.46516 3.91708 6.35658C3.87642 6.24801 3.87595 6.13088 3.91574 6.02205C3.95554 5.91323 4.03355 5.81832 4.13854 5.75099C4.24353 5.68367 4.37009 5.64739 4.5 5.64739C4.62991 5.64739 4.75647 5.68367 4.86146 5.75099C4.96645 5.81832 5.04446 5.91323 5.08426 6.02205C5.12405 6.13088 5.12358 6.24801 5.08292 6.35658C5.04225 6.46516 4.96348 6.55958 4.85795 6.62625ZM6.80114 3.96H2.19886V1.44C2.19886 1.09238 2.51974 0.81 2.91477 0.81H6.08523C6.48026 0.81 6.80114 1.09238 6.80114 1.44V3.96Z" fill="#2D544A"/>
</svg>
