<svg width="9" height="9" viewBox="0 0 9 9" fill="none" xmlns="http://www.w3.org/2000/svg">
<g clip-path="url(#clip0_8_121)">
<path d="M8.67857 1.96429H0.321429C0.143638 1.96429 0 2.10793 0 2.28572V8.71429C0 8.89208 0.143638 9.03572 0.321429 9.03572H8.67857C8.85636 9.03572 9 8.89208 9 8.71429V2.28572C9 2.10793 8.85636 1.96429 8.67857 1.96429ZM8.27679 3.07723V8.3125H0.723214V3.07723L0.445982 2.86127L0.840737 2.35402L1.27065 2.68851H7.73036L8.16027 2.35402L8.55502 2.86127L8.27679 3.07723ZM7.73036 2.6875L4.5 5.19866L1.26964 2.6875L0.839732 2.35301L0.444978 2.86027L0.72221 3.07623L4.15346 5.74409C4.25214 5.82075 4.37354 5.86236 4.49849 5.86236C4.62345 5.86236 4.74485 5.82075 4.84353 5.74409L8.27679 3.07723L8.55402 2.86127L8.15926 2.35402L7.73036 2.6875Z" fill="#2D544A"/>
</g>
<defs>
<clipPath id="clip0_8_121">
<rect width="9" height="9" fill="white"/>
</clipPath>
</defs>
</svg>
