<svg width="13" height="10" viewBox="0 0 13 10" fill="none" xmlns="http://www.w3.org/2000/svg">
<path d="M12.5357 0H0.464286C0.207478 0 0 0.203125 0 0.454545V9.54545C0 9.79688 0.207478 10 0.464286 10H12.5357C12.7925 10 13 9.79688 13 9.54545V0.454545C13 0.203125 12.7925 0 12.5357 0ZM11.9554 8.97727H1.04464V1.02273H11.9554V8.97727ZM7.92623 4.48864H9.71663C9.73549 4.48864 9.75 4.4375 9.75 4.375V3.69318C9.75 3.63068 9.73549 3.57955 9.71663 3.57955H7.92623C7.90737 3.57955 7.89286 3.63068 7.89286 3.69318V4.375C7.89286 4.4375 7.90737 4.48864 7.92623 4.48864ZM7.99587 6.53409H10.6902C10.7468 6.53409 10.7932 6.48295 10.7932 6.42045V5.73864C10.7932 5.67614 10.7468 5.625 10.6902 5.625H7.99587C7.93929 5.625 7.89286 5.67614 7.89286 5.73864V6.42045C7.89286 6.48295 7.93929 6.53409 7.99587 6.53409ZM2.32143 7.28693H2.95837C3.01931 7.28693 3.06864 7.24006 3.07299 7.1804C3.12812 6.46307 3.7404 5.89489 4.48326 5.89489C5.22612 5.89489 5.83839 6.46307 5.89353 7.1804C5.89788 7.24006 5.94721 7.28693 6.00815 7.28693H6.64509C6.66083 7.28695 6.67642 7.28384 6.69089 7.27777C6.70536 7.27171 6.71843 7.26283 6.72929 7.25167C6.74014 7.2405 6.74857 7.2273 6.75405 7.21285C6.75953 7.1984 6.76195 7.18301 6.76116 7.16761C6.72054 6.41051 6.29687 5.75142 5.67879 5.37642C5.95136 5.08309 6.10197 4.70053 6.101 4.30398C6.101 3.42472 5.37701 2.71307 4.48471 2.71307C3.59241 2.71307 2.86842 3.42472 2.86842 4.30398C2.86842 4.71733 3.02801 5.09233 3.29062 5.37642C2.97597 5.56732 2.71318 5.82994 2.5247 6.14185C2.33622 6.45376 2.22765 6.8057 2.20826 7.16761C2.20246 7.23295 2.25469 7.28693 2.32143 7.28693ZM4.48326 3.56534C4.89676 3.56534 5.23337 3.89631 5.23337 4.30398C5.23337 4.71165 4.89676 5.04261 4.48326 5.04261C4.06975 5.04261 3.73315 4.71165 3.73315 4.30398C3.73315 3.89631 4.06975 3.56534 4.48326 3.56534Z" fill="#2D544A"/>
</svg>
