<svg width="11" height="11" viewBox="0 0 11 11" fill="none" xmlns="http://www.w3.org/2000/svg">
<g clip-path="url(#clip0_8_100)">
<path d="M10.4916 8.77464C10.2407 8.2133 9.8767 7.70341 9.41978 7.27339C8.96424 6.84212 8.42461 6.49827 7.83069 6.26082C7.82537 6.25831 7.82005 6.25705 7.81473 6.25454C8.64319 5.68922 9.18175 4.76836 9.18175 3.72942C9.18175 2.00831 7.70569 0.613838 5.8839 0.613838C4.0621 0.613838 2.58605 2.00831 2.58605 3.72942C2.58605 4.76836 3.12461 5.68921 3.95306 6.2558C3.94774 6.25831 3.94242 6.25957 3.9371 6.26208C3.34136 6.49952 2.80679 6.83997 2.34802 7.27464C1.89151 7.705 1.52755 8.21481 1.27621 8.7759C1.0293 9.32521 0.896139 9.91415 0.883929 10.5108C0.883574 10.5242 0.886064 10.5376 0.891251 10.5501C0.896438 10.5625 0.904218 10.5739 0.914132 10.5835C0.924046 10.5931 0.935893 10.6007 0.948977 10.606C0.96206 10.6112 0.976114 10.6138 0.990311 10.6138H1.78818C1.84669 10.6138 1.89323 10.5699 1.89456 10.5158C1.92116 9.546 2.33339 8.63771 3.06211 7.94927C3.81609 7.23695 4.81741 6.84499 5.8839 6.84499C6.95038 6.84499 7.9517 7.23695 8.70569 7.94927C9.4344 8.63771 9.84664 9.546 9.87323 10.5158C9.87456 10.5711 9.9211 10.6138 9.97961 10.6138H10.7775C10.7917 10.6138 10.8057 10.6112 10.8188 10.606C10.8319 10.6007 10.8437 10.5931 10.8537 10.5835C10.8636 10.5739 10.8714 10.5625 10.8765 10.5501C10.8817 10.5376 10.8842 10.5242 10.8839 10.5108C10.8706 9.91032 10.7389 9.32615 10.4916 8.77464ZM5.8839 5.89022C5.27353 5.89022 4.69906 5.66535 4.26689 5.25705C3.83471 4.84876 3.59668 4.30605 3.59668 3.72942C3.59668 3.15278 3.83471 2.61007 4.26689 2.20178C4.69906 1.79349 5.27353 1.56861 5.8839 1.56861C6.49426 1.56861 7.06873 1.79349 7.50091 2.20178C7.93308 2.61007 8.17111 3.15278 8.17111 3.72942C8.17111 4.30605 7.93308 4.84876 7.50091 5.25705C7.06873 5.66535 6.49426 5.89022 5.8839 5.89022Z" fill="#2D544A"/>
</g>
<defs>
<clipPath id="clip0_8_100">
<rect width="11" height="11" fill="white"/>
</clipPath>
</defs>
</svg>
